<svg width="1400" height="980" viewBox="0 0 1400 980" fill="none" xmlns="http://www.w3.org/2000/svg">
<rect width="1400" height="980" fill="#9D9D9D"/>
<g clip-path="url(#clip0)">
<mask id="mask0" mask-type="alpha" maskUnits="userSpaceOnUse" x="304" y="134" width="791" height="791">
<path d="M699.5 924.366C917.653 924.366 1094.5 747.506 1094.5 529.338C1094.5 311.17 917.653 134.31 699.5 134.31C481.348 134.31 304.5 311.17 304.5 529.338C304.5 747.506 481.348 924.366 699.5 924.366Z" fill="white"/>
</mask>
<g mask="url(#mask0)">
<path d="M699.5 924.366C917.653 924.366 1094.5 747.506 1094.5 529.338C1094.5 311.17 917.653 134.31 699.5 134.31C481.348 134.31 304.5 311.17 304.5 529.338C304.5 747.506 481.348 924.366 699.5 924.366Z" fill="#E6E6E6"/>
<path d="M1094.5 134.31H304.5V924.366H1094.5V134.31Z" fill="#E5E5E5"/>
</g>
<mask id="mask1" mask-type="alpha" maskUnits="userSpaceOnUse" x="265" y="2" width="869" height="923">
<path d="M304.5 529.338C304.5 747.506 481.348 924.367 699.5 924.367C917.652 924.367 1094.5 747.506 1094.5 529.338H1134V2.63351H265V529.338H304.5Z" fill="white"/>
</mask>
<g mask="url(#mask1)">
<mask id="mask2" mask-type="alpha" maskUnits="userSpaceOnUse" x="370" y="121" width="659" height="804">
<path d="M778.5 597.187V657.722H791.667C922.558 657.722 1028.67 763.838 1028.67 894.739V924.367H370.333V894.739C370.333 763.838 476.442 657.722 607.333 657.722H620.5V597.187C563.76 570.231 522.975 515.14 516.171 449.941C496.998 447.231 482.25 430.752 482.25 410.83V364.743C482.25 345.169 496.485 328.921 515.167 325.786V305.489C515.167 203.677 597.695 121.142 699.5 121.142C801.304 121.142 883.833 203.677 883.833 305.489V325.786C902.515 328.921 916.75 345.169 916.75 364.743V410.83C916.75 430.752 902.002 447.231 882.829 449.941C876.025 515.14 835.24 570.231 778.5 597.187Z" fill="white"/>
</mask>
<g mask="url(#mask2)">
<path d="M778.5 597.187V657.722H791.667C922.558 657.722 1028.67 763.838 1028.67 894.739V924.367H370.333V894.739C370.333 763.838 476.442 657.722 607.333 657.722H620.5V597.187C563.76 570.231 522.975 515.14 516.171 449.941C496.998 447.231 482.25 430.752 482.25 410.83V364.743C482.25 345.169 496.485 328.921 515.167 325.786V305.489C515.167 203.677 597.695 121.142 699.5 121.142C801.304 121.142 883.833 203.677 883.833 305.489V325.786C902.515 328.921 916.75 345.169 916.75 364.743V410.83C916.75 430.752 902.002 447.231 882.829 449.941C876.025 515.14 835.24 570.231 778.5 597.187Z" fill="#D0C6AC"/>
<path d="M1134 121.142H265V924.366H1134V121.142Z" fill="#FFDBB4"/>
<path fill-rule="evenodd" clip-rule="evenodd" d="M883.833 381.202V456.916C883.833 558.728 801.304 641.263 699.5 641.263C597.695 641.263 515.167 558.728 515.167 456.916V381.202V430.581C515.167 532.393 597.695 614.928 699.5 614.928C801.304 614.928 883.833 532.393 883.833 430.581V381.202Z" fill="black" fill-opacity="0.1"/>
</g>
<mask id="mask3" mask-type="alpha" maskUnits="userSpaceOnUse" x="370" y="605" width="659" height="320">
<path fill-rule="evenodd" clip-rule="evenodd" d="M620.5 605.285C561.518 611.886 516.088 629.912 515.18 676.305C430.065 712.263 370.333 796.524 370.333 894.738V924.366H1028.67V894.738C1028.67 796.524 968.935 712.263 883.819 676.305C882.912 629.912 837.482 611.886 778.5 605.285V667.598C778.5 711.232 743.13 746.604 699.5 746.604C655.869 746.604 620.5 711.232 620.5 667.598V605.285Z" fill="white"/>
</mask>
<g mask="url(#mask3)">
<path fill-rule="evenodd" clip-rule="evenodd" d="M620.5 605.285C561.518 611.886 516.088 629.912 515.18 676.305C430.065 712.263 370.333 796.524 370.333 894.738V924.366H1028.67V894.738C1028.67 796.524 968.935 712.263 883.819 676.305C882.912 629.912 837.482 611.886 778.5 605.285V667.598C778.5 711.232 743.13 746.604 699.5 746.604C655.869 746.604 620.5 711.232 620.5 667.598V605.285Z" fill="#B7C1DB"/>
<path d="M1134 562.257H265V924.366H1134V562.257Z" fill="#5199E4"/>
<path fill-rule="evenodd" clip-rule="evenodd" d="M600.75 765.496V924.366H577.708V753.682C584.962 757.994 592.675 761.947 600.75 765.496ZM821.292 753.682V886.51C821.292 892.873 816.134 898.031 809.771 898.031C803.408 898.031 798.25 892.873 798.25 886.51V765.496C806.325 761.947 814.038 757.994 821.292 753.682Z" fill="#F4F4F4"/>
<path fill-rule="evenodd" clip-rule="evenodd" d="M564.41 604.144C514.868 613.516 480.604 632.187 480.604 668.611C480.604 733.502 589.353 786.107 699.5 786.107C809.647 786.107 918.396 733.502 918.396 668.611C918.396 632.187 884.132 613.516 834.589 604.144C864.494 615.173 883.833 633.711 883.833 664.559C883.833 731.688 792.255 786.107 699.5 786.107C606.745 786.107 515.167 731.688 515.167 664.559C515.167 633.711 534.505 615.173 564.41 604.144Z" fill="black" fill-opacity="0.16"/>
</g>
<mask id="mask4" mask-type="alpha" maskUnits="userSpaceOnUse" x="637" y="486" width="125" height="64">
<path fill-rule="evenodd" clip-rule="evenodd" d="M637.346 493.549C640.828 524.795 667.327 549.089 699.5 549.089C731.772 549.089 758.335 524.644 761.685 493.259C761.955 490.733 759.134 486.543 755.599 486.543C706.573 486.543 669.012 486.543 643.828 486.543C640.272 486.543 636.998 490.423 637.346 493.549Z" fill="white"/>
</mask>
<g mask="url(#mask4)">
<path fill-rule="evenodd" clip-rule="evenodd" d="M637.346 493.549C640.828 524.795 667.327 549.089 699.5 549.089C731.772 549.089 758.335 524.644 761.685 493.259C761.955 490.733 759.134 486.543 755.599 486.543C706.573 486.543 669.012 486.543 643.828 486.543C640.272 486.543 636.998 490.423 637.346 493.549Z" fill="black" fill-opacity="0.7"/>
<path d="M735.708 450.332H666.583C657.494 450.332 650.125 457.702 650.125 466.792V486.543C650.125 495.634 657.494 503.003 666.583 503.003H735.708C744.798 503.003 752.167 495.634 752.167 486.543V466.792C752.167 457.702 744.798 450.332 735.708 450.332Z" fill="white"/>
<path d="M683.042 595.176C703.039 595.176 719.25 578.964 719.25 558.965C719.25 538.966 703.039 522.754 683.042 522.754C663.044 522.754 646.833 538.966 646.833 558.965C646.833 578.964 663.044 595.176 683.042 595.176Z" fill="#FF4F6D"/>
<path d="M715.958 595.176C735.956 595.176 752.167 578.964 752.167 558.965C752.167 538.966 735.956 522.754 715.958 522.754C695.961 522.754 679.75 538.966 679.75 558.965C679.75 578.964 695.961 595.176 715.958 595.176Z" fill="#FF4F6D"/>
</g>
<path fill-rule="evenodd" clip-rule="evenodd" d="M660 430.581C660 445.125 677.685 456.916 699.5 456.916C721.315 456.916 739 445.125 739 430.581" fill="black" fill-opacity="0.16"/>
<path d="M613.917 391.078C624.824 391.078 633.667 382.235 633.667 371.327C633.667 360.418 624.824 351.575 613.917 351.575C603.009 351.575 594.167 360.418 594.167 371.327C594.167 382.235 603.009 391.078 613.917 391.078Z" fill="black" fill-opacity="0.6"/>
<path d="M785.083 391.078C795.991 391.078 804.833 382.235 804.833 371.327C804.833 360.418 795.991 351.575 785.083 351.575C774.176 351.575 765.333 360.418 765.333 371.327C765.333 382.235 774.176 391.078 785.083 391.078Z" fill="black" fill-opacity="0.6"/>
<path d="M566.616 329.054C579.503 310.92 614.832 300.751 645.263 308.225C648.794 309.092 652.36 306.932 653.227 303.401C654.094 299.87 651.934 296.304 648.403 295.437C613.062 286.758 572.152 298.533 555.884 321.426C553.778 324.39 554.473 328.5 557.436 330.607C560.4 332.713 564.51 332.018 566.616 329.054Z" fill="black" fill-opacity="0.6"/>
<path d="M832.385 329.054C819.498 310.92 784.169 300.751 753.738 308.225C750.207 309.092 746.641 306.932 745.774 303.401C744.907 299.87 747.067 296.304 750.598 295.437C785.939 286.758 826.849 298.533 843.117 321.426C845.223 324.39 844.528 328.5 841.565 330.607C838.601 332.713 834.491 332.018 832.385 329.054Z" fill="black" fill-opacity="0.6"/>
<mask id="mask5" mask-type="alpha" maskUnits="userSpaceOnUse" x="265" y="2" width="869" height="923">
<path d="M1134 2.63351H265V924.367H1134V2.63351Z" fill="white"/>
</mask>
<g mask="url(#mask5)">
<mask id="mask6" mask-type="alpha" maskUnits="userSpaceOnUse" x="495" y="35" width="412" height="297">
<path fill-rule="evenodd" clip-rule="evenodd" d="M866.321 130.849C884.117 114.553 888.4 81.5126 878.296 60.075C865.891 33.7547 840.717 30.4572 816.592 42.0332C793.854 52.9455 773.612 56.5808 748.711 51.2935C724.818 46.2206 702.152 37.2729 677.457 35.8035C636.886 33.3895 597.469 48.4389 569.819 78.7727C564.543 84.5596 560.292 91.1763 556.274 97.8827C553.059 103.249 549.435 109.006 548.067 115.191C547.416 118.132 548.627 125.388 547.163 127.798C545.579 130.4 539.606 132.787 537.06 134.717C531.902 138.63 527.434 143.046 523.302 148.04C514.526 158.646 509.695 169.723 505.632 182.842C492.127 226.443 490.982 278.302 508.442 321.114C510.769 326.824 517.981 338.732 522.221 326.507C523.059 324.09 521.12 315.992 521.125 313.554C521.14 304.6 526.082 245.317 547.613 212.107C554.621 201.297 587.023 160.817 593.642 160.492C597.148 166.065 632.747 201.67 725.12 197.497C766.799 195.615 798.851 176.887 806.548 168.77C809.933 186.983 849.314 214.25 855.315 225.47C872.65 257.88 876.495 325.226 883.112 325.1C889.73 324.973 894.48 307.858 895.841 304.59C905.952 280.311 907.673 249.838 906.595 223.745C905.188 190.161 891.327 153.87 866.321 130.849Z" fill="white"/>
</mask>
<g mask="url(#mask6)">
<path fill-rule="evenodd" clip-rule="evenodd" d="M866.321 130.849C884.117 114.553 888.4 81.5126 878.296 60.075C865.891 33.7547 840.717 30.4572 816.592 42.0332C793.854 52.9455 773.612 56.5808 748.711 51.2935C724.818 46.2206 702.152 37.2729 677.457 35.8035C636.886 33.3895 597.469 48.4389 569.819 78.7727C564.543 84.5596 560.292 91.1763 556.274 97.8827C553.059 103.249 549.435 109.006 548.067 115.191C547.416 118.132 548.627 125.388 547.163 127.798C545.579 130.4 539.606 132.787 537.06 134.717C531.902 138.63 527.434 143.046 523.302 148.04C514.526 158.646 509.695 169.723 505.632 182.842C492.127 226.443 490.982 278.302 508.442 321.114C510.769 326.824 517.981 338.732 522.221 326.507C523.059 324.09 521.12 315.992 521.125 313.554C521.14 304.6 526.082 245.317 547.613 212.107C554.621 201.297 587.023 160.817 593.642 160.492C597.148 166.065 632.747 201.67 725.12 197.497C766.799 195.615 798.851 176.887 806.548 168.77C809.933 186.983 849.314 214.25 855.315 225.47C872.65 257.88 876.495 325.226 883.112 325.1C889.73 324.973 894.48 307.858 895.841 304.59C905.952 280.311 907.673 249.838 906.595 223.745C905.188 190.161 891.327 153.87 866.321 130.849Z" fill="#28354B"/>
<path d="M1130.71 2.63348H261.708V924.366H1130.71V2.63348Z" fill="#4A312C"/>
<g filter="url(#filter0_d)">
<path fill-rule="evenodd" clip-rule="evenodd" d="M730.654 336.413C743.543 310.29 770.444 292.321 801.542 292.321C830.902 292.321 856.522 308.339 870.14 332.114C870.832 331.925 871.56 331.824 872.313 331.824H898.646C903.191 331.824 906.875 335.508 906.875 340.054C906.875 344.599 903.191 348.283 898.646 348.283H877.129C879.348 355.574 880.542 363.311 880.542 371.327C880.542 414.96 845.172 450.332 801.542 450.332C757.911 450.332 722.542 414.96 722.542 371.327C722.542 366.646 722.949 362.06 723.729 357.603C723.451 343.198 712.382 331.824 699.047 331.824C686.747 331.824 676.375 341.501 674.621 354.308C675.824 359.789 676.458 365.484 676.458 371.327C676.458 414.96 641.089 450.332 597.458 450.332C553.828 450.332 518.458 414.96 518.458 371.327C518.458 363.311 519.652 355.574 521.871 348.283H500.354C495.809 348.283 492.125 344.599 492.125 340.054C492.125 335.508 495.809 331.824 500.354 331.824H526.688C527.44 331.824 528.168 331.925 528.86 332.114C542.478 308.339 568.098 292.321 597.458 292.321C628.243 292.321 654.914 309.93 667.952 335.626C674.789 325.369 686.167 318.656 699.047 318.656C712.254 318.656 723.882 325.714 730.654 336.413ZM597.458 437.165C633.817 437.165 663.292 407.688 663.292 371.327C663.292 334.965 633.817 305.489 597.458 305.489C561.1 305.489 531.625 334.965 531.625 371.327C531.625 407.688 561.1 437.165 597.458 437.165ZM801.542 437.165C837.9 437.165 867.375 407.688 867.375 371.327C867.375 334.965 837.9 305.489 801.542 305.489C765.183 305.489 735.708 334.965 735.708 371.327C735.708 407.688 765.183 437.165 801.542 437.165Z" fill="black"/>
</g>
<path fill-rule="evenodd" clip-rule="evenodd" d="M730.654 336.413C743.543 310.29 770.444 292.321 801.542 292.321C830.902 292.321 856.522 308.339 870.14 332.114C870.832 331.925 871.56 331.824 872.313 331.824H898.646C903.191 331.824 906.875 335.508 906.875 340.054C906.875 344.599 903.191 348.283 898.646 348.283H877.129C879.348 355.574 880.542 363.311 880.542 371.327C880.542 414.96 845.172 450.332 801.542 450.332C757.911 450.332 722.542 414.96 722.542 371.327C722.542 366.646 722.949 362.06 723.729 357.603C723.451 343.198 712.382 331.824 699.047 331.824C686.747 331.824 676.375 341.501 674.621 354.308C675.824 359.789 676.458 365.484 676.458 371.327C676.458 414.96 641.089 450.332 597.458 450.332C553.828 450.332 518.458 414.96 518.458 371.327C518.458 363.311 519.652 355.574 521.871 348.283H500.354C495.809 348.283 492.125 344.599 492.125 340.054C492.125 335.508 495.809 331.824 500.354 331.824H526.688C527.44 331.824 528.168 331.925 528.86 332.114C542.478 308.339 568.098 292.321 597.458 292.321C628.243 292.321 654.914 309.93 667.952 335.626C674.789 325.369 686.167 318.656 699.047 318.656C712.254 318.656 723.882 325.714 730.654 336.413ZM597.458 437.165C633.817 437.165 663.292 407.688 663.292 371.327C663.292 334.965 633.817 305.489 597.458 305.489C561.1 305.489 531.625 334.965 531.625 371.327C531.625 407.688 561.1 437.165 597.458 437.165ZM801.542 437.165C837.9 437.165 867.375 407.688 867.375 371.327C867.375 334.965 837.9 305.489 801.542 305.489C765.183 305.489 735.708 334.965 735.708 371.327C735.708 407.688 765.183 437.165 801.542 437.165Z" fill="#4D4D4D"/>
</g>
</g>
</g>
<g filter="url(#filter1_d)">
<path fill-rule="evenodd" clip-rule="evenodd" d="M731.124 336.753C744.207 310.239 771.513 292 803.079 292C832.882 292 858.888 308.258 872.711 332.389C873.414 332.198 874.153 332.095 874.917 332.095H901.647C906.26 332.095 910 335.835 910 340.448C910 345.062 906.26 348.802 901.647 348.802H879.805C882.058 356.201 883.27 364.054 883.27 372.19C883.27 416.478 847.367 452.381 803.079 452.381C758.791 452.381 722.889 416.478 722.889 372.19C722.889 367.44 723.302 362.785 724.094 358.261C723.812 343.64 712.576 332.095 699.04 332.095C686.555 332.095 676.027 341.918 674.246 354.916C675.467 360.48 676.111 366.26 676.111 372.19C676.111 416.478 640.209 452.381 595.921 452.381C551.633 452.381 515.73 416.478 515.73 372.19C515.73 364.054 516.942 356.201 519.195 348.802H497.353C492.74 348.802 489 345.062 489 340.448C489 335.835 492.74 332.095 497.353 332.095H524.083C524.847 332.095 525.586 332.198 526.289 332.389C540.112 308.258 566.118 292 595.921 292C627.169 292 654.242 309.873 667.476 335.954C674.417 325.544 685.966 318.73 699.04 318.73C712.446 318.73 724.249 325.894 731.124 336.753ZM595.921 439.016C632.827 439.016 662.746 409.097 662.746 372.19C662.746 335.284 632.827 305.365 595.921 305.365C559.014 305.365 529.095 335.284 529.095 372.19C529.095 409.097 559.014 439.016 595.921 439.016ZM803.079 439.016C839.986 439.016 869.905 409.097 869.905 372.19C869.905 335.284 839.986 305.365 803.079 305.365C766.173 305.365 736.254 335.284 736.254 372.19C736.254 409.097 766.173 439.016 803.079 439.016Z" fill="black"/>
</g>
<path fill-rule="evenodd" clip-rule="evenodd" d="M731.124 336.753C744.207 310.239 771.513 292 803.079 292C832.882 292 858.888 308.258 872.711 332.389C873.414 332.198 874.153 332.095 874.917 332.095H901.647C906.26 332.095 910 335.835 910 340.448C910 345.062 906.26 348.802 901.647 348.802H879.805C882.058 356.201 883.27 364.054 883.27 372.19C883.27 416.478 847.367 452.381 803.079 452.381C758.791 452.381 722.889 416.478 722.889 372.19C722.889 367.44 723.302 362.785 724.094 358.261C723.812 343.64 712.576 332.095 699.04 332.095C686.555 332.095 676.027 341.918 674.246 354.916C675.467 360.48 676.111 366.26 676.111 372.19C676.111 416.478 640.209 452.381 595.921 452.381C551.633 452.381 515.73 416.478 515.73 372.19C515.73 364.054 516.942 356.201 519.195 348.802H497.353C492.74 348.802 489 345.062 489 340.448C489 335.835 492.74 332.095 497.353 332.095H524.083C524.847 332.095 525.586 332.198 526.289 332.389C540.112 308.258 566.118 292 595.921 292C627.169 292 654.242 309.873 667.476 335.954C674.417 325.544 685.966 318.73 699.04 318.73C712.446 318.73 724.249 325.894 731.124 336.753ZM595.921 439.016C632.827 439.016 662.746 409.097 662.746 372.19C662.746 335.284 632.827 305.365 595.921 305.365C559.014 305.365 529.095 335.284 529.095 372.19C529.095 409.097 559.014 439.016 595.921 439.016ZM803.079 439.016C839.986 439.016 869.905 409.097 869.905 372.19C869.905 335.284 839.986 305.365 803.079 305.365C766.173 305.365 736.254 335.284 736.254 372.19C736.254 409.097 766.173 439.016 803.079 439.016Z" fill="#3E4B50"/>
</g>
<defs>
<filter id="filter0_d" x="485.307" y="288.912" width="428.386" height="171.648" filterUnits="userSpaceOnUse" color-interpolation-filters="sRGB">
<feFlood flood-opacity="0" result="BackgroundImageFix"/>
<feColorMatrix in="SourceAlpha" type="matrix" values="0 0 0 0 0 0 0 0 0 0 0 0 0 0 0 0 0 0 127 0"/>
<feOffset dy="3.40909"/>
<feGaussianBlur stdDeviation="3.40909"/>
<feColorMatrix type="matrix" values="0 0 0 0 0 0 0 0 0 0 0 0 0 0 0 0 0 0 0.1 0"/>
<feBlend mode="normal" in2="BackgroundImageFix" result="effect1_dropShadow"/>
<feBlend mode="normal" in="SourceGraphic" in2="effect1_dropShadow" result="shape"/>
</filter>
<filter id="filter1_d" x="482.182" y="288.591" width="434.636" height="174.017" filterUnits="userSpaceOnUse" color-interpolation-filters="sRGB">
<feFlood flood-opacity="0" result="BackgroundImageFix"/>
<feColorMatrix in="SourceAlpha" type="matrix" values="0 0 0 0 0 0 0 0 0 0 0 0 0 0 0 0 0 0 127 0"/>
<feOffset dy="3.40909"/>
<feGaussianBlur stdDeviation="3.40909"/>
<feColorMatrix type="matrix" values="0 0 0 0 0 0 0 0 0 0 0 0 0 0 0 0 0 0 0.1 0"/>
<feBlend mode="normal" in2="BackgroundImageFix" result="effect1_dropShadow"/>
<feBlend mode="normal" in="SourceGraphic" in2="effect1_dropShadow" result="shape"/>
</filter>
<clipPath id="clip0">
<rect width="869" height="927" fill="white" transform="translate(265)"/>
</clipPath>
</defs>
</svg>
