<svg width="1148" height="1433" viewBox="0 0 1148 1433" fill="none" xmlns="http://www.w3.org/2000/svg">
<path d="M574 234.306C588.365 234.306 600.011 222.628 600.011 208.223C600.011 193.817 588.365 182.139 574 182.139C559.635 182.139 547.989 193.817 547.989 208.223C547.989 222.628 559.635 234.306 574 234.306Z" fill="#61DAFB"/>
<path d="M574 304.143C594.417 324.056 614.555 335.836 630.777 335.836C636.091 335.836 641.125 334.714 645.32 332.19C659.864 323.776 665.178 302.741 660.144 272.73C659.305 267.402 658.186 262.073 656.787 256.463C662.381 254.78 667.416 253.098 672.45 251.415C700.698 240.477 716.361 225.331 716.361 208.784C716.361 191.955 700.698 176.81 672.45 166.152C667.416 164.189 662.381 162.506 656.787 161.104C658.186 155.495 659.305 150.166 660.144 144.837C664.898 114.266 659.584 92.95 645.041 84.5359C640.845 82.0117 635.811 80.8898 630.497 80.8898C614.555 80.8898 594.138 92.6695 573.72 112.583C553.583 92.6695 533.445 80.8898 517.223 80.8898C511.909 80.8898 506.875 82.0117 502.68 84.5359C488.136 92.95 482.822 113.985 487.856 143.995C488.695 149.324 489.814 154.653 491.213 160.262C485.619 161.945 480.584 163.628 475.55 165.311C447.302 176.249 431.639 191.395 431.639 207.942C431.639 224.77 447.302 239.916 475.55 250.573C480.584 252.537 485.619 254.22 491.213 255.622C489.814 261.231 488.695 266.56 487.856 271.889C483.102 301.899 488.416 323.215 502.68 331.348C506.875 333.873 511.909 334.995 517.223 334.995C533.445 335.555 553.583 323.776 574 304.143ZM558.338 266.28C563.372 266.56 568.686 266.56 574 266.56C579.314 266.56 584.628 266.56 589.662 266.28C584.628 273.011 579.314 279.181 574 285.071C568.686 279.181 563.372 273.011 558.338 266.28V266.28ZM523.656 237.391C526.453 242.159 528.97 246.647 532.047 251.134C523.377 250.012 515.266 248.61 507.434 246.927C509.952 239.355 512.748 231.502 516.105 223.648C518.342 228.136 520.859 232.904 523.656 237.391V237.391ZM507.434 169.798C515.266 168.116 523.377 166.713 532.047 165.591C529.25 170.079 526.453 174.566 523.656 179.334C520.859 184.102 518.342 188.59 516.105 193.358C512.469 185.224 509.672 177.371 507.434 169.798V169.798ZM522.817 208.223C526.453 200.65 530.369 193.077 534.844 185.505C539.039 178.212 543.794 170.92 548.548 163.628C556.939 163.067 565.33 162.787 574 162.787C582.95 162.787 591.341 163.067 599.452 163.628C604.486 170.92 608.961 178.212 613.156 185.505C617.631 193.077 621.547 200.65 625.183 208.223C621.547 215.795 617.631 223.368 613.156 230.941C608.961 238.233 604.206 245.525 599.452 252.817C591.061 253.378 582.67 253.659 574 253.659C565.05 253.659 556.659 253.378 548.548 252.817C543.514 245.525 539.039 238.233 534.844 230.941C530.369 223.368 526.453 215.795 522.817 208.223V208.223ZM632.175 193.077L624.623 179.054C621.827 174.286 619.309 169.798 616.233 165.311C624.903 166.433 633.014 167.835 640.845 169.518C638.328 177.371 635.531 185.224 632.175 193.077ZM632.175 223.368C635.531 231.221 638.328 239.074 640.845 246.647C633.014 248.33 624.903 249.732 616.233 250.854C619.03 246.366 621.827 241.879 624.623 237.111C627.141 232.904 629.658 228.136 632.175 223.368ZM638.608 320.691C636.37 322.093 633.573 322.654 630.497 322.654C616.792 322.654 599.731 311.435 582.95 294.607C591.061 285.913 598.892 276.096 606.723 265.158C619.869 264.036 632.455 262.073 644.202 259.268C645.6 264.316 646.439 269.365 647.278 274.413C651.194 298.253 648.117 315.362 638.608 320.691V320.691ZM653.152 172.884C684.477 181.859 703.216 195.602 703.216 208.223C703.216 219.161 690.35 230.099 667.695 238.794C663.22 240.477 658.186 242.159 653.152 243.562C649.516 232.062 645.041 220.283 639.447 208.223C645.041 196.162 649.795 184.383 653.152 172.884ZM630.777 93.7914C633.853 93.7914 636.37 94.3523 638.887 95.7547C648.117 101.084 651.473 117.912 647.558 142.032C646.719 146.8 645.6 151.848 644.481 157.177C632.734 154.653 620.148 152.69 607.003 151.287C599.452 140.349 591.341 130.533 583.23 121.838C600.011 105.291 617.072 93.7914 630.777 93.7914V93.7914ZM589.662 150.166C584.628 149.885 579.314 149.885 574 149.885C568.686 149.885 563.372 149.885 558.338 150.166C563.372 143.434 568.686 137.264 574 131.374C579.314 137.264 584.628 143.715 589.662 150.166ZM509.392 95.7547C511.63 94.3523 514.427 93.7914 517.503 93.7914C531.208 93.7914 548.269 105.01 565.05 121.838C556.939 130.533 549.108 140.349 541.277 151.287C528.131 152.409 515.545 154.373 503.798 157.177C502.4 152.129 501.561 147.08 500.722 142.032C496.806 118.192 499.883 101.364 509.392 95.7547V95.7547ZM494.848 243.562C463.523 234.587 444.784 220.844 444.784 208.223C444.784 197.284 457.65 186.346 480.305 177.652C484.78 175.969 489.814 174.286 494.848 172.884C498.484 184.383 502.959 196.162 508.553 208.223C502.959 220.283 498.205 232.343 494.848 243.562V243.562ZM500.722 274.413C501.561 269.645 502.68 264.597 503.798 259.268C515.545 261.792 528.131 263.755 541.277 265.158C548.828 276.096 556.939 285.913 565.05 294.607C548.269 311.155 531.208 322.654 517.503 322.654C514.427 322.654 511.909 322.093 509.392 320.691C499.883 315.362 496.806 298.253 500.722 274.413V274.413ZM488.975 389.966C495.128 382.394 495.408 373.98 492.052 365.566C488.695 357.152 481.703 353.225 473.033 352.945C462.684 352.664 452.056 352.945 441.708 352.945H439.75V425.586H448.141V398.1H461.286C462.964 398.1 464.362 398.661 465.202 400.063L481.983 426.147C482.262 426.708 483.102 427.549 483.661 427.549H494.569C487.856 417.172 481.423 407.355 474.711 397.259C480.584 396.417 485.619 394.454 488.975 389.966V389.966ZM448.141 389.405V361.639H451.217C457.65 361.639 464.362 361.359 470.795 361.92C478.347 362.2 483.661 368.09 483.661 375.662C483.661 383.235 477.508 389.125 469.956 389.405C463.244 389.686 456.531 389.405 448.141 389.405V389.405ZM556.38 393.052C551.905 373.419 534.005 368.37 520.3 374.541C509.672 379.309 504.917 388.564 504.637 400.063C504.358 408.758 506.875 416.611 513.588 422.501C521.139 429.232 530.369 430.073 539.878 428.391C545.192 427.269 549.947 424.745 553.583 420.818C552.184 418.855 550.786 416.891 549.387 415.209C541.556 421.94 532.886 424.184 523.377 419.696C517.223 416.611 514.147 409.038 513.588 403.429H556.939V399.783C557.219 397.259 556.939 395.015 556.38 393.052V393.052ZM514.147 397.539C513.308 389.125 521.698 380.15 530.928 380.15C541.556 379.87 548.269 386.32 548.548 397.539H514.147ZM600.011 373.138C595.816 372.297 591.341 372.016 587.145 372.297C580.433 372.858 574.559 375.943 569.805 380.991C571.203 382.955 572.322 384.918 574 387.162C574.559 386.601 575.119 386.04 575.678 385.759C580.153 381.552 585.467 379.309 591.9 379.87C596.934 380.15 601.689 381.833 603.088 386.881C604.206 390.808 603.927 395.015 604.206 399.222C603.367 399.222 603.088 398.941 602.808 398.661C596.095 393.052 588.544 391.93 580.433 393.893C572.881 395.856 568.127 401.746 567.567 409.319C567.008 418.013 570.923 424.464 578.475 427.549C583.23 429.512 588.544 429.512 593.578 428.391C597.494 427.549 599.172 425.305 604.766 422.22V425.866H612.597C612.597 414.648 612.877 400.905 612.597 388.003C612.597 379.87 607.842 374.821 600.011 373.138ZM603.927 408.477C603.647 409.319 603.927 410.16 603.927 411.002C603.927 416.891 602.528 418.855 596.934 421.098C593.019 422.501 588.823 423.062 584.628 421.659C579.873 420.257 576.517 416.05 576.517 411.282C576.238 406.514 579.314 401.746 584.069 400.344C590.502 398.1 596.375 399.502 601.689 403.429C603.367 404.831 604.486 406.234 603.927 408.477V408.477ZM647.558 380.711C654.83 378.467 661.542 379.87 666.577 386.04L667.416 386.601C669.373 384.918 671.052 383.235 673.289 381.272C672.45 380.43 672.17 379.87 671.611 379.028C663.5 370.334 647.558 369.212 637.769 376.223C624.064 386.32 624.344 405.953 631.056 416.33C637.489 426.147 646.719 429.512 657.627 428.11C664.059 427.269 669.373 424.184 673.569 418.855C671.611 417.172 669.653 415.489 667.695 413.526C667.136 414.087 666.856 414.367 666.577 414.928C659.025 423.342 646.439 422.501 639.727 413.526C635.811 408.197 634.972 402.027 636.091 395.856C636.65 388.845 640.286 383.235 647.558 380.711ZM705.733 418.855C705.173 419.135 704.894 419.416 704.894 419.416C702.656 421.098 700.419 421.379 697.902 420.537C695.384 419.416 695.105 417.172 694.825 414.928V382.955C694.825 382.394 694.825 383.516 695.105 380.711H705.733V372.297H694.545V358.273H686.155V373.419H678.883C678.323 373.419 677.484 373.98 677.484 374.541C677.205 376.504 677.484 377.906 677.484 380.711H686.434V416.611C686.434 421.098 687.553 425.025 691.469 427.269C695.664 429.793 703.775 429.232 707.411 426.147C707.97 425.866 708.25 424.745 708.25 424.464C707.411 422.781 706.572 420.818 705.733 418.855V418.855Z" fill="#61DAFB"/>
<path d="M892.391 179.195V328.609H1041.8V179.195H892.391ZM971.423 306.512C969.218 310.993 965.008 313.937 960.13 315.358C952.634 317.079 945.465 316.098 940.131 312.897C936.562 310.707 933.775 307.336 931.883 303.453L943.262 296.484C943.361 296.526 943.66 297.066 944.059 297.764C945.51 300.196 946.762 301.917 949.222 303.125C951.639 303.95 956.945 304.477 958.993 300.224C960.245 298.061 959.847 291.106 959.847 283.412C959.846 271.322 959.902 259.281 959.902 247.328H973.898C973.898 260.477 973.97 272.929 973.898 285.76C973.928 293.625 974.61 300.637 971.423 306.512ZM1029.48 302.558C1024.62 319.199 997.496 319.739 986.657 308.744C984.366 306.157 982.931 304.805 981.565 301.818C987.325 298.504 987.325 298.504 992.93 295.261C995.974 299.941 998.789 302.515 1003.85 303.568C1010.72 304.407 1017.64 302.046 1016.09 294.749C1014.49 288.789 1002.02 287.339 993.527 280.965C984.908 275.177 982.888 261.11 989.971 253.073C992.332 250.1 996.358 247.882 1000.58 246.815L1004.99 246.245C1013.45 246.074 1018.74 248.309 1022.63 252.646C1023.71 253.741 1024.59 254.922 1026.24 257.481C1021.73 260.355 1021.75 260.327 1015.29 264.508C1013.91 261.537 1011.62 259.672 1009.2 258.862C1005.44 257.724 1000.71 258.961 999.726 262.929C999.385 264.152 999.456 265.29 999.997 267.31C1001.52 270.78 1006.63 272.289 1011.21 274.394C1024.39 279.741 1028.84 285.475 1029.94 292.301C1030.99 298.177 1029.68 301.989 1029.48 302.558V302.558Z" fill="#F0DB4F"/>
<path d="M107.391 254.392V329.099H256.805V179.685H107.391V254.392ZM227.794 248.416C231.373 249.246 234.626 251.118 237.142 253.795C238.527 255.237 239.731 256.842 240.728 258.576C240.728 258.767 234.273 263.13 230.34 265.569C230.197 265.664 229.623 265.043 228.99 264.098C228.272 262.86 227.252 261.823 226.025 261.085C224.798 260.347 223.404 259.932 221.973 259.879C217.443 259.568 214.526 261.947 214.55 265.855C214.513 266.829 214.736 267.794 215.196 268.652C216.188 270.72 218.041 271.952 223.85 274.462C234.548 279.064 239.126 282.1 241.971 286.415C245.15 291.196 245.856 298.918 243.704 304.631C241.313 310.847 235.456 315.066 227.173 316.465C223.39 316.898 219.567 316.858 215.794 316.345C210.035 315.411 204.722 312.669 200.625 308.516C199.25 306.998 196.573 303.042 196.74 302.755C197.177 302.431 197.636 302.139 198.115 301.882L203.613 298.727L207.904 296.24L208.801 297.567C210.314 299.731 212.239 301.576 214.467 302.994C219.248 305.504 225.774 305.157 229.002 302.253C230.085 301.188 230.761 299.778 230.912 298.266C231.063 296.755 230.679 295.239 229.826 293.981C228.631 292.32 226.241 290.921 219.559 288.005C211.849 284.682 208.526 282.626 205.49 279.351C203.595 277.189 202.195 274.639 201.39 271.88C200.789 268.727 200.701 265.498 201.127 262.317C202.717 254.871 208.299 249.671 216.451 248.129C220.226 247.662 224.05 247.767 227.794 248.44V248.416ZM192.724 254.679V260.799H173.324V316.059H159.566V260.787H140.118V254.811C140.066 252.753 140.122 250.695 140.286 248.643C140.357 248.547 152.239 248.5 166.583 248.523H192.652L192.724 254.679Z" fill="#007ACC"/>
<path d="M609.714 555.326H599.146L610.137 567.175V572.816H587.5V566.211H598.489L587.5 554.362V548.716H609.714V555.326ZM583.012 555.326H572.444L583.434 567.175V572.816H560.796V566.211H571.787L560.796 554.362V548.716H583.012V555.326ZM556.571 555.597H545.167V565.935H556.571V572.816H537.061V548.716H556.571V555.597Z" fill="white"/>
<path d="M521.521 712.941L509.932 583.817H637.264L625.665 712.92L573.52 727.284L521.521 712.941V712.941Z" fill="#1572B6"/>
<path d="M573.6 716.306L615.734 704.7L625.647 594.375H573.6V716.306Z" fill="#33A9DC"/>
<path d="M573.599 641.157H594.692L596.151 624.94H573.599V609.103H613.571L613.189 613.352L609.272 656.992H573.599V641.157Z" fill="white"/>
<path d="M573.695 682.286L573.624 682.306L555.871 677.542L554.735 664.912H538.735L540.97 689.778L573.622 698.782L573.696 698.761V682.286H573.695Z" fill="#EBEBEB"/>
<path d="M593.338 656.322L591.418 677.531L573.639 682.299V698.775L606.318 689.778L606.558 687.102L609.332 656.322H593.338Z" fill="white"/>
<path d="M573.655 609.103V624.939H535.15L534.83 621.38L534.104 613.352L533.722 609.103H573.655ZM573.599 641.158V656.995H556.07L555.751 653.436L555.024 645.407L554.642 641.158H573.599Z" fill="#EBEBEB"/>
<path fill-rule="evenodd" clip-rule="evenodd" d="M106.745 626.847C106.745 627.846 107.041 628.506 107.207 629.147C108.289 633.318 110.615 636.897 113.374 640.161C117.304 644.814 122.118 648.559 127.048 652.081C131.325 655.135 135.688 658.121 139.982 661.152C140.719 661.673 141.416 662.271 142.216 662.91C141.528 663.28 140.955 663.605 140.36 663.905C134.694 666.76 129.242 669.961 124.217 673.838C121.189 676.176 118.26 678.66 116.192 681.906C112.865 687.127 111.687 692.69 114.167 698.629C114.891 700.363 115.996 701.862 117.555 702.97C118.06 703.328 118.627 703.684 119.218 703.823C120.732 704.177 122.275 704.409 123.808 704.689L128.149 704.686C132.949 704.261 137.319 702.627 141.267 699.92C147.439 695.688 151.597 690.015 153.384 682.734C154.684 677.441 154.737 672.143 153.205 666.875C153.059 666.387 152.89 665.906 152.699 665.434C152.513 664.96 152.294 664.499 152.036 663.909L161.877 658.287L162.024 658.412C161.846 658.994 161.655 659.574 161.493 660.161C160.324 664.404 159.547 668.721 159.826 673.125C160.124 677.817 161.442 682.209 164.207 686.129C166.443 689.3 171.77 689.418 174.146 686.236C174.989 685.105 175.806 683.924 176.42 682.663C178.024 679.371 179.51 676.021 181.043 672.694L181.31 672.085C181.2 673.661 181.071 675.044 181.013 676.429C180.921 678.592 181.048 680.742 181.793 682.799C182.43 684.559 183.513 685.875 185.542 686.106C186.931 686.264 188.037 685.633 189.058 684.832C190.638 683.591 191.949 682.044 192.909 680.284C195.63 675.32 198.424 670.386 200.89 665.297C203.557 659.793 205.89 654.128 208.368 648.53L208.777 647.538C209.362 649.823 209.77 652.061 210.522 654.18C211.395 656.638 212.475 659.038 213.652 661.371C214.209 662.473 214.144 663.189 213.373 664.113C210.144 667.98 206.971 671.895 203.795 675.805C203.092 676.668 202.392 677.547 201.807 678.489C201.452 679.085 201.218 679.744 201.12 680.429C201.021 681.059 201.173 681.704 201.542 682.226C201.911 682.748 202.469 683.109 203.099 683.231C204.372 683.504 205.677 683.596 206.975 683.506C211.408 683.181 215.432 681.636 218.99 679.017C223.6 675.624 225.08 670.995 223.964 665.508C223.662 664.019 223.128 662.571 222.608 661.137C222.375 660.49 222.359 660.036 222.784 659.433C226.47 654.205 229.619 648.658 232.547 642.984C232.663 642.76 232.782 642.537 232.985 642.298C233.934 647.204 235.362 651.932 237.921 656.221C236.616 657.471 235.323 658.604 234.154 659.853C231.579 662.603 229.347 665.589 228.182 669.23C227.681 670.8 227.296 672.395 227.519 674.072C227.865 676.675 230.012 678.367 232.59 677.774C238.106 676.506 242.867 673.924 246.347 669.349C248.688 666.27 248.902 662.834 247.921 659.236C247.652 658.257 247.333 657.295 246.989 656.173C248.351 655.754 249.677 655.25 251.05 654.939C258.176 653.324 265.225 653.605 272.092 656.162C276.101 657.655 279.339 660.153 281.26 664.083C283.606 668.887 282.309 673.446 277.751 676.483C277.326 676.766 276.839 676.989 276.487 677.343C276.374 677.473 276.29 677.625 276.239 677.789C276.189 677.953 276.173 678.126 276.194 678.296C276.224 678.471 276.689 678.69 276.956 678.687C278.455 678.676 279.67 677.895 280.837 677.093C283.759 675.084 285.892 672.381 286.351 668.822L286.441 668.555L286.331 666.237C286.287 666.103 286.364 665.971 286.354 665.87C285.733 660.687 282.946 656.668 278.893 653.517C274.199 649.87 268.655 648.368 262.793 648.131C258.038 647.928 253.29 648.654 248.817 650.268C247.533 650.73 246.261 651.277 244.97 651.794C244.797 651.482 244.611 651.184 244.458 650.875C243.132 648.179 241.526 645.603 241.171 642.512C240.92 640.316 240.61 638.124 241.136 635.953C241.641 633.864 242.299 631.811 242.919 629.75C243.238 628.69 243.013 628.095 241.994 627.617C241.639 627.442 241.26 627.318 240.869 627.251C238.365 626.889 235.895 627.096 233.469 627.797C232.61 628.045 231.986 628.523 231.795 629.467C231.687 630.009 231.465 630.528 231.31 631.063C230.676 633.285 230.227 635.55 229.202 637.667C226.634 642.978 223.703 648.088 220.703 653.161C220.379 653.709 220.036 654.246 219.627 654.91C218.574 652.721 217.45 650.756 217.11 648.452C216.725 645.847 216.421 643.247 217.074 640.662C217.559 638.734 218.193 636.841 218.777 634.939C219.053 634.034 218.926 633.559 218.101 633.083C217.685 632.843 217.214 632.63 216.745 632.56C214.176 632.171 211.552 632.385 209.082 633.183C208.305 633.433 207.897 633.932 207.659 634.728C206.961 637.077 206.365 639.483 205.385 641.717C201.415 650.76 197.33 659.756 193.25 668.751C192.398 670.629 191.4 672.442 190.44 674.271C190.197 674.734 189.842 675.142 189.538 675.577C189.295 675.292 189.201 675.095 189.202 674.899C189.209 673.743 189.07 672.553 189.292 671.435C189.973 668.055 190.726 664.69 191.551 661.342C192.223 658.575 193.006 655.833 193.752 653.085C194.002 652.165 194.007 651.304 193.341 650.531C192.223 649.236 189.888 648.951 188.502 649.949L187.89 650.294L188.008 649.312C188.3 647.209 188.359 645.114 187.778 643.042C187.054 640.46 185.199 638.974 182.503 639.056C181.246 639.095 179.926 639.308 178.763 639.763C173.869 641.668 170.107 645.043 166.904 649.102C166.607 649.479 166.239 649.795 165.82 650.032C161.68 652.313 157.526 654.565 153.374 656.826L148.753 659.341C147.513 658.166 146.387 656.948 145.109 655.914C141.206 652.752 137.24 649.668 133.31 646.541C129.826 643.77 126.451 640.884 123.869 637.214C121.949 634.484 120.711 631.496 120.592 628.121C120.442 623.82 121.67 619.89 123.874 616.231C126.693 611.55 130.539 607.794 134.767 604.391C139.239 600.794 144.077 597.74 149.09 594.951C156.105 591.051 163.32 587.599 171.056 585.32C178.987 582.982 187.035 581.644 195.336 582.577C198.6 582.944 201.768 583.686 204.678 585.271C206.906 586.484 208.734 588.072 209.584 590.555C210.423 592.998 210.397 595.473 209.816 597.954C208.635 602.979 205.866 607.121 202.381 610.822C196.665 616.889 189.692 621.02 181.841 623.749C177.328 625.319 172.631 626.315 167.865 626.71C163.96 627.036 160.135 626.692 156.437 625.342C153.988 624.448 151.856 623.08 150.141 621.095C149.835 620.74 149.443 620.355 148.871 620.687C148.312 621.014 148.213 621.543 148.401 622.079C148.714 622.969 149.003 623.896 149.491 624.693C150.718 626.69 152.507 628.139 154.476 629.382C158.259 631.772 162.487 632.576 166.871 632.762C173.523 633.048 180.014 632.061 186.413 630.288C195.548 627.757 203.491 623.286 209.862 616.234C215.166 610.362 218.954 603.734 219.766 595.732C220.162 591.826 219.74 588 217.9 584.437C215.903 580.576 212.729 577.705 208.933 575.728C203.406 572.848 197.44 571.172 191.283 571.172H185.115C177.658 571.172 170.449 573.295 163.441 575.827C158.137 577.745 152.936 580.009 147.887 582.514C136.891 587.973 126.65 594.555 118.239 603.605C114.048 608.114 110.5 613.089 108.459 618.947C107.843 620.696 107.313 622.473 106.869 624.273L106.745 626.847ZM146.713 675.479C146.237 681.819 143.344 686.959 138.617 691.123C135.958 693.463 132.908 695.13 129.355 695.715C128.067 695.927 126.749 695.978 125.5 695.448C123.718 694.692 123.318 693.12 123.284 691.447C123.231 688.779 124.171 686.368 125.461 684.073C127.144 681.081 129.611 678.801 132.246 676.671C136.397 673.314 140.9 670.473 145.511 667.791L145.859 667.649C146.572 670.265 146.911 672.849 146.713 675.479V675.479ZM182.72 647.925C182.384 649.949 181.963 651.976 181.368 653.938C179.309 660.73 176.666 667.312 173.808 673.806C173.28 675.007 172.511 676.103 171.843 677.242C171.729 677.417 171.593 677.577 171.438 677.717C170.61 678.529 169.826 678.486 169.408 677.424C168.922 676.19 168.622 674.869 168.365 673.563C168.192 672.685 168.233 671.764 168.179 670.865C168.235 664.475 170.197 658.668 173.526 653.262C174.898 651.033 176.393 648.909 178.675 647.498C179.386 647.059 180.154 646.722 180.958 646.494C182.175 646.154 182.922 646.713 182.72 647.925V647.925ZM207.286 679.018L216.115 668.776C216.483 672.58 209.975 680.173 207.286 679.018ZM235.485 672.126C234.861 672.482 234.181 672.738 233.542 673.066C232.956 673.368 232.763 673.063 232.746 672.563C232.737 672.216 232.782 671.871 232.879 671.538C234.071 667.36 236.265 663.794 239.53 660.894L239.759 660.777C241.312 665.092 239.517 669.832 235.485 672.126Z" fill="#CB6699"/>
<path d="M898.865 712.441L887.354 584.172H1013.84L1002.32 712.421L950.521 726.687L898.865 712.441Z" fill="#E44D26"/>
<path d="M950.599 715.782L992.454 704.254L1002.3 594.661H950.599V715.782Z" fill="#F16529"/>
<path d="M950.599 642.234H929.644L928.199 626.123H950.599V610.391H910.892L911.27 614.613L915.163 657.965H950.599V642.234ZM950.599 683.089L950.529 683.108L932.894 678.376L931.767 665.83H915.87L918.088 690.531L950.526 699.478L950.599 699.456V683.089Z" fill="#EBEBEB"/>
<path d="M899.123 549.313H907.169V557.213H914.532V549.313H922.58V573.232H914.532V565.223H907.171V573.232H899.123V549.313V549.313ZM933.161 557.246H926.076V549.313H948.296V557.246H941.208V573.232H933.161V557.246V557.246ZM951.822 549.313H960.212L965.375 557.718L970.531 549.313H978.926V573.232H970.909V561.377L965.375 569.881H965.234L959.696 561.377V573.232H951.821V549.313H951.822ZM982.932 549.313H990.981V565.327H1002.3V573.234H982.932V549.313V549.313Z" fill="white"/>
<path d="M950.544 642.234V657.965H970.043L968.206 678.367L950.544 683.103V699.469L983.007 690.531L983.245 687.872L986.966 646.457L987.353 642.234H983.085H950.544ZM950.544 610.391V626.123H988.794L989.11 622.587L989.833 614.613L990.212 610.391H950.544Z" fill="white"/>
<path d="M995.954 971.266C994.977 971.266 994.007 971.011 993.152 970.514L984.229 965.246C982.896 964.504 983.546 964.238 983.987 964.087C985.765 963.469 986.125 963.325 988.021 962.256C988.219 962.145 988.478 962.186 988.684 962.307L995.536 966.368C995.664 966.436 995.806 966.472 995.95 966.472C996.095 966.472 996.237 966.436 996.364 966.368L1023.09 950.979C1023.22 950.905 1023.32 950.799 1023.39 950.672C1023.46 950.546 1023.5 950.402 1023.5 950.257V919.485C1023.5 919.337 1023.46 919.192 1023.39 919.063C1023.32 918.934 1023.21 918.826 1023.09 918.749L996.371 903.373C996.245 903.304 996.103 903.267 995.959 903.267C995.814 903.267 995.673 903.304 995.546 903.373L968.834 918.752C968.708 918.829 968.603 918.936 968.529 919.064C968.455 919.192 968.416 919.337 968.413 919.485V950.257C968.413 950.552 968.578 950.831 968.834 950.969L976.155 955.192C980.128 957.17 982.562 954.839 982.562 952.494V922.108C982.562 921.682 982.909 921.342 983.337 921.342H986.728C987.148 921.342 987.499 921.682 987.499 922.108V952.494C987.499 957.782 984.613 960.815 979.586 960.815C978.04 960.815 976.825 960.815 973.431 959.149L966.423 955.124C965.571 954.629 964.864 953.919 964.372 953.065C963.881 952.212 963.622 951.244 963.622 950.26V919.488C963.622 917.489 964.689 915.625 966.423 914.63L993.149 899.221C994.01 898.753 994.975 898.508 995.955 898.508C996.936 898.508 997.901 898.753 998.762 899.221L1025.49 914.63C1027.22 915.628 1028.29 917.493 1028.29 919.488V950.26C1028.29 951.244 1028.03 952.211 1027.54 953.065C1027.05 953.918 1026.34 954.628 1025.49 955.124L998.762 970.517C997.909 971.011 996.94 971.269 995.954 971.266ZM1004.21 950.065C992.512 950.065 990.064 944.707 990.064 940.215C990.065 940.011 990.147 939.815 990.292 939.671C990.438 939.527 990.634 939.446 990.839 939.446H994.294C994.478 939.445 994.658 939.511 994.798 939.63C994.939 939.75 995.032 939.916 995.061 940.098C995.58 943.608 997.139 945.379 1004.21 945.379C1009.84 945.379 1012.24 944.109 1012.24 941.126C1012.24 939.406 1011.56 938.133 1002.81 937.276C995.496 936.554 990.974 934.945 990.974 929.103C990.974 923.724 995.519 920.513 1003.14 920.513C1011.7 920.513 1015.93 923.479 1016.47 929.842C1016.48 929.949 1016.46 930.056 1016.43 930.158C1016.4 930.26 1016.34 930.353 1016.27 930.433C1016.19 930.509 1016.11 930.57 1016.01 930.613C1015.91 930.655 1015.81 930.677 1015.7 930.678H1012.23C1012.06 930.678 1011.89 930.619 1011.75 930.51C1011.61 930.4 1011.52 930.248 1011.48 930.077C1010.64 926.382 1008.62 925.202 1003.13 925.202C996.987 925.202 996.274 927.342 996.274 928.938C996.274 930.876 997.115 931.441 1005.42 932.536C1013.63 933.621 1017.53 935.153 1017.53 940.914C1017.53 946.736 1012.68 950.065 1004.21 950.065V950.065ZM940.924 929.882C941.978 929.267 942.628 928.145 942.628 926.926V919.018C942.628 917.802 941.981 916.68 940.924 916.065L912.761 899.752C912.24 899.45 911.648 899.29 911.046 899.289C910.443 899.288 909.851 899.445 909.329 899.745L880.991 916.068C880.471 916.368 880.04 916.799 879.74 917.318C879.44 917.837 879.281 918.425 879.281 919.025V951.664C879.281 952.89 879.941 954.026 881.011 954.634L909.171 970.641C910.208 971.236 911.481 971.239 912.528 970.661L929.559 961.215C929.825 961.068 930.046 960.854 930.201 960.593C930.355 960.333 930.438 960.037 930.44 959.734C930.442 959.432 930.363 959.134 930.212 958.872C930.061 958.61 929.843 958.392 929.58 958.242L901.066 941.915C900.805 941.767 900.587 941.552 900.436 941.292C900.285 941.032 900.205 940.737 900.204 940.437V930.205C900.204 929.593 900.531 929.032 901.06 928.73L909.939 923.624C910.198 923.473 910.493 923.394 910.792 923.394C911.092 923.394 911.387 923.473 911.646 923.624L920.525 928.73C920.786 928.879 921.002 929.093 921.153 929.352C921.304 929.611 921.383 929.905 921.384 930.205V938.254C921.382 938.555 921.46 938.851 921.611 939.112C921.761 939.373 921.978 939.589 922.239 939.739C922.5 939.89 922.797 939.968 923.099 939.967C923.4 939.965 923.696 939.884 923.956 939.732L940.924 929.882V929.882ZM910.626 928.35C910.726 928.294 910.839 928.265 910.954 928.265C911.069 928.265 911.182 928.294 911.282 928.35L916.72 931.484C916.922 931.602 917.047 931.82 917.047 932.052V938.317C917.047 938.553 916.922 938.768 916.72 938.885L911.282 942.016C911.183 942.074 911.069 942.104 910.954 942.104C910.839 942.104 910.725 942.074 910.626 942.016L905.191 938.885C905.091 938.828 905.007 938.745 904.949 938.646C904.891 938.546 904.861 938.433 904.861 938.317V932.052C904.861 931.82 904.986 931.602 905.191 931.484L910.626 928.35ZM836.881 941.385C836.881 941.687 836.719 941.969 836.453 942.124L826.722 947.72C826.593 947.796 826.445 947.836 826.295 947.836C826.144 947.836 825.997 947.796 825.867 947.72L816.136 942.124C816.006 942.048 815.898 941.941 815.823 941.811C815.748 941.681 815.708 941.534 815.708 941.385V930.171C815.708 929.869 815.873 929.583 816.136 929.429L825.867 923.825C825.997 923.748 826.145 923.707 826.296 923.707C826.447 923.707 826.596 923.748 826.726 923.825L836.46 929.429C836.589 929.505 836.696 929.614 836.77 929.744C836.845 929.874 836.884 930.021 836.884 930.171V941.385H836.881ZM839.511 858.354C839.25 858.212 838.956 858.14 838.659 858.144C838.362 858.149 838.071 858.23 837.814 858.38C837.558 858.531 837.345 858.745 837.196 859.001C837.047 859.258 836.968 859.549 836.965 859.846V903.232C836.964 903.441 836.909 903.647 836.804 903.828C836.7 904.01 836.55 904.161 836.369 904.267C836.187 904.371 835.98 904.425 835.77 904.425C835.56 904.425 835.353 904.371 835.17 904.267L828.072 900.185C827.553 899.887 826.963 899.729 826.364 899.729C825.764 899.729 825.175 899.887 824.655 900.185L796.31 916.505C795.789 916.805 795.356 917.236 795.056 917.756C794.755 918.275 794.596 918.865 794.596 919.465V952.114C794.596 953.334 795.249 954.459 796.306 955.074L824.651 971.404C825.709 972.015 827.015 972.015 828.076 971.404L856.428 955.074C856.947 954.773 857.379 954.341 857.679 953.822C857.979 953.303 858.137 952.714 858.138 952.114V870.727C858.138 869.491 857.465 868.348 856.384 867.744L839.511 858.354V858.354ZM739.754 899.57C740.274 899.27 740.864 899.112 741.465 899.112C742.066 899.112 742.656 899.27 743.176 899.57L771.521 915.887C772.578 916.498 773.231 917.627 773.231 918.846V951.506C773.231 952.726 772.578 953.855 771.521 954.466L743.179 970.796C742.658 971.095 742.068 971.252 741.467 971.252C740.866 971.252 740.275 971.095 739.754 970.796L711.42 954.466C710.9 954.165 710.468 953.733 710.168 953.214C709.868 952.695 709.71 952.106 709.709 951.506V918.843C709.709 917.627 710.362 916.498 711.42 915.887L739.754 899.57V899.57ZM688.21 918.574C688.21 917.345 687.563 916.216 686.499 915.608L658.164 899.339C657.688 899.063 657.152 898.91 656.602 898.892H656.309C655.759 898.91 655.222 899.064 654.746 899.339L626.408 915.608C625.887 915.909 625.454 916.342 625.153 916.862C624.852 917.383 624.694 917.973 624.694 918.574L624.755 962.381C624.755 962.992 625.075 963.56 625.61 963.855C625.867 964.01 626.161 964.092 626.46 964.092C626.76 964.092 627.054 964.01 627.311 963.855L644.147 954.234C645.211 953.603 645.86 952.491 645.86 951.271V930.806C645.86 929.583 646.507 928.458 647.568 927.846L654.74 923.728C655.258 923.424 655.849 923.265 656.45 923.267C657.036 923.267 657.636 923.415 658.157 923.728L665.323 927.846C666.383 928.458 667.037 929.583 667.037 930.806V951.271C667.037 952.491 667.693 953.609 668.751 954.234L685.587 963.855C685.846 964.003 686.14 964.081 686.439 964.08C686.738 964.079 687.032 964.001 687.291 963.851C687.55 963.702 687.765 963.488 687.915 963.23C688.065 962.972 688.144 962.679 688.146 962.381L688.21 918.574" fill="#689F63"/>
<path d="M111.784 977.958H121.604V939.048L136.809 972.969C138.602 977.075 141.057 978.526 145.874 978.526C150.691 978.526 153.053 977.075 154.846 972.969L170.05 939.048V977.958H179.871V939.113C179.871 935.323 178.36 933.488 175.243 932.543C167.782 930.207 162.776 932.229 160.509 937.283L145.589 970.76L131.143 937.28C128.97 932.229 123.871 930.207 116.41 932.541C113.292 933.488 111.781 935.321 111.781 939.11V977.958H111.784ZM188.04 946.284H197.858V967.721C197.767 968.885 198.231 971.619 203.61 971.705C206.354 971.748 224.796 971.705 224.968 971.705V946.179H234.81C234.855 946.179 234.8 980.989 234.8 981.133C234.853 989.72 224.184 991.583 219.264 991.727H188.253V985.098C188.305 985.098 219.242 985.105 219.319 985.096C225.642 984.426 224.894 981.275 224.891 980.215V977.629H204.019C194.308 977.541 188.121 973.288 188.042 968.395C188.037 967.947 188.255 946.5 188.04 946.284V946.284Z" fill="#00618A"/>
<path d="M242.381 977.958H270.619C273.925 977.958 277.138 977.265 279.687 976.065C283.935 974.108 286.012 971.456 286.012 967.978V960.778C286.012 957.936 283.653 955.281 279.025 953.515C276.569 952.566 273.545 952.064 270.617 952.064H258.716C254.75 952.064 252.862 950.865 252.391 948.212C252.297 947.896 252.297 947.644 252.297 947.327V942.842C252.297 942.591 252.297 942.336 252.391 942.022C252.862 940 253.902 939.432 257.397 939.115L258.341 939.053H286.39V932.486H258.814C254.848 932.486 252.771 932.738 250.882 933.306C245.028 935.139 242.474 938.043 242.474 943.097V948.843C242.474 953.266 247.483 957.055 255.886 957.941C256.832 958 257.774 958.068 258.719 958.068H268.919C269.297 958.068 269.675 958.068 269.959 958.128C273.077 958.379 274.396 958.95 275.343 960.085C275.586 960.309 275.778 960.583 275.908 960.888C276.038 961.192 276.102 961.521 276.096 961.852V967.601C276.096 968.295 275.625 969.18 274.681 969.937C273.832 970.695 272.415 971.201 270.526 971.329L269.486 971.391H242.381V977.958ZM347.284 966.527C347.284 973.283 352.29 977.073 362.393 977.833C363.337 977.895 364.281 977.958 365.226 977.958H390.82V971.391H365.039C359.278 971.391 357.107 969.937 357.107 966.462V932.481H347.287V966.527H347.284ZM292.281 966.867V943.447C292.281 937.499 296.445 933.889 304.678 932.75C305.556 932.623 306.441 932.56 307.327 932.56H325.972C326.918 932.56 327.769 932.623 328.714 932.75C336.947 933.889 341.114 937.496 341.114 943.447V966.867C341.114 971.698 339.345 974.279 335.269 975.962L344.946 984.724H333.54L325.714 977.634L317.834 978.135H307.327C305.375 978.123 303.434 977.846 301.556 977.313C295.31 975.605 292.281 972.312 292.281 966.867V966.867ZM302.881 966.299C302.881 966.616 302.974 966.935 303.07 967.314C303.636 970.036 306.194 971.554 310.072 971.554H318.993L310.798 964.131H322.204L329.35 970.607C330.669 969.899 331.535 968.825 331.838 967.441C331.932 967.124 331.932 966.808 331.932 966.491V944.022C331.932 943.771 331.932 943.452 331.838 943.135C331.269 940.602 328.714 939.149 324.929 939.149H310.069C305.718 939.149 302.878 941.048 302.878 944.022V966.299H302.881Z" fill="#E48E00"/>
<path d="M399.46 921.58C393.423 921.415 388.812 921.978 384.867 923.645C383.746 924.12 381.96 924.132 381.778 925.54C382.393 926.19 382.488 927.157 382.979 927.953C383.92 929.481 385.51 931.529 386.928 932.601C388.475 933.774 390.072 935.031 391.735 936.048C394.688 937.856 397.987 938.887 400.834 940.696C402.51 941.765 404.174 943.109 405.811 944.315C406.622 944.907 407.162 945.836 408.216 946.207V946.037C407.664 945.332 407.521 944.363 407.014 943.624L404.781 941.384C402.598 938.477 399.83 935.928 396.882 933.807C394.535 932.117 389.28 929.831 388.3 927.089L388.128 926.919C389.792 926.73 391.743 926.125 393.277 925.713C395.859 925.017 398.166 925.197 400.832 924.506L404.437 923.47V922.784C403.091 921.398 402.127 919.561 400.66 918.306C396.818 915.023 392.62 911.742 388.3 909.003C385.905 907.487 382.943 906.501 380.401 905.216C379.55 904.782 378.049 904.558 377.482 903.837C376.146 902.131 375.422 899.97 374.391 897.982C372.191 893.687 370.13 889.321 368.212 884.891C366.911 881.905 366.06 878.96 364.437 876.281C356.641 863.423 348.25 855.662 335.252 848.034C332.486 846.411 329.156 845.773 325.639 844.936L319.974 844.59C318.824 844.108 317.624 842.693 316.541 842.007C312.233 839.278 301.188 833.342 297.999 841.149C295.986 846.075 301.011 850.881 302.807 853.378C304.066 855.129 305.682 857.091 306.584 859.06C307.177 860.355 307.277 861.653 307.786 863.022C309.032 866.395 310.119 870.067 311.733 873.182C312.548 874.76 313.45 876.422 314.48 877.833C315.111 878.696 316.196 879.08 316.366 880.416C315.307 881.903 315.245 884.215 314.65 886.098C311.967 894.586 312.979 905.136 316.883 911.418C318.08 913.349 320.901 917.484 324.779 915.896C328.171 914.51 327.416 910.214 328.386 906.422C328.606 905.566 328.47 904.933 328.9 904.357V904.53L331.991 910.73C334.279 914.426 338.336 918.285 341.776 920.892C343.56 922.242 344.965 924.581 347.27 925.37V925.195H347.1C346.651 924.497 345.955 924.209 345.381 923.645C344.038 922.324 342.544 920.683 341.434 919.167C338.305 914.908 335.541 910.243 333.022 905.388C331.819 903.071 330.774 900.515 329.761 898.155C329.369 897.246 329.374 895.869 328.561 895.401C327.447 897.128 325.814 898.526 324.953 900.567C323.581 903.829 323.404 907.808 322.895 911.934L322.551 912.104C320.158 911.526 319.319 909.056 318.429 906.938C316.182 901.582 315.764 892.955 317.743 886.788C318.255 885.191 320.566 880.166 319.629 878.691C319.182 877.221 317.707 876.372 316.885 875.245C315.806 873.736 314.885 872.12 314.138 870.422C312.297 866.246 311.439 861.557 309.505 857.333C308.577 855.314 307.014 853.273 305.728 851.479C304.305 849.488 302.711 848.025 301.606 845.622C301.214 844.768 300.681 843.398 301.262 842.52C301.446 841.928 301.712 841.681 302.295 841.487C303.289 840.717 306.063 841.743 307.1 842.175C309.854 843.324 312.151 844.415 314.485 845.965C315.604 846.711 316.734 848.15 318.09 848.548H319.634C322.051 849.104 324.76 848.718 327.016 849.406C331.009 850.625 334.585 852.517 337.832 854.575C347.726 860.845 355.814 869.767 361.351 880.411C362.24 882.126 362.627 883.759 363.409 885.577C364.991 889.242 366.985 893.015 368.558 896.6C370.129 900.177 371.661 903.786 373.882 906.763C375.049 908.326 379.558 909.166 381.606 910.034C383.043 910.643 385.395 911.279 386.756 912.099C389.354 913.673 391.874 915.546 394.31 917.268C395.527 918.136 399.273 920.024 399.46 921.58V921.58ZM322.723 855.961C321.682 855.944 320.643 856.06 319.632 856.307V856.477H319.804C320.404 857.717 321.463 858.513 322.206 859.578L323.925 863.195L324.095 863.025C325.159 862.274 325.644 861.072 325.639 859.235C325.211 858.784 325.149 858.221 324.781 857.686C324.293 856.966 323.342 856.563 322.723 855.961V855.961Z" fill="#00618A"/>
<path d="M835.064 1183.67L769.626 1144.82C765.724 1142.52 761.353 1141.35 757 1141.35C752.647 1141.35 748.276 1142.52 744.374 1144.84L678.918 1183.69C671.114 1188.32 666.292 1196.89 666.292 1206.17V1283.87C666.292 1293.15 671.096 1301.71 678.918 1306.34L744.356 1345.19C748.259 1347.52 752.612 1348.66 756.983 1348.66C761.336 1348.66 765.707 1347.5 769.609 1345.19L835.064 1306.34C842.869 1301.71 847.69 1293.13 847.69 1283.87V1206.15C847.69 1196.89 842.886 1188.3 835.064 1183.67V1183.67ZM784.386 1304.99L784.49 1310.58C784.49 1311.25 784.056 1312.02 783.536 1312.29L780.223 1314.2C779.703 1314.46 779.252 1314.15 779.252 1313.47L779.2 1307.98C776.373 1309.15 773.494 1309.43 771.673 1308.7C771.326 1308.56 771.17 1308.06 771.309 1307.47L772.505 1302.43C772.609 1302.03 772.818 1301.63 773.095 1301.38C773.199 1301.28 773.303 1301.21 773.407 1301.16C773.598 1301.05 773.789 1301.04 773.945 1301.11C775.922 1301.77 778.437 1301.45 780.865 1300.24C783.952 1298.68 786.016 1295.52 785.981 1292.4C785.947 1289.56 784.42 1288.39 780.692 1288.36C775.939 1288.38 771.499 1287.44 771.43 1280.43C771.378 1274.68 774.361 1268.67 779.113 1264.89L779.061 1259.26C779.061 1258.56 779.478 1257.8 780.015 1257.52L783.224 1255.48C783.744 1255.22 784.195 1255.55 784.195 1256.22L784.247 1261.86C786.606 1260.92 788.652 1260.66 790.508 1261.1C790.907 1261.2 791.098 1261.75 790.924 1262.4L789.676 1267.39C789.572 1267.77 789.363 1268.15 789.103 1268.4C789.007 1268.49 788.895 1268.58 788.774 1268.64C788.6 1268.73 788.444 1268.74 788.288 1268.73C787.438 1268.54 785.426 1268.1 782.253 1269.7C778.923 1271.38 777.76 1274.28 777.778 1276.43C777.813 1278.99 779.113 1279.77 783.657 1279.84C789.71 1279.95 792.312 1282.58 792.381 1288.67C792.468 1294.64 789.277 1301.07 784.386 1304.99V1304.99ZM830.069 1200.06L768.152 1238.31C760.434 1242.81 754.745 1247.88 754.728 1257.19V1333.49C754.728 1339.06 756.983 1342.66 760.434 1343.72C759.307 1343.91 758.145 1344.05 757 1344.05C753.375 1344.05 749.802 1343.06 746.663 1341.21L681.225 1302.36C674.825 1298.56 670.854 1291.46 670.854 1283.85V1206.15C670.854 1198.54 674.825 1191.44 681.225 1187.64L746.68 1148.79C749.82 1146.94 753.393 1145.95 757.017 1145.95C760.642 1145.95 764.215 1146.94 767.354 1148.79L832.81 1187.64C838.203 1190.85 841.846 1196.39 842.869 1202.61C840.666 1197.98 835.775 1196.73 830.069 1200.06Z" fill="#BDBDBD"/>
<path d="M817.911 1291.36L801.608 1301.11C801.175 1301.37 800.862 1301.64 800.862 1302.17V1306.43C800.862 1306.95 801.209 1307.18 801.643 1306.92L818.189 1296.86C818.622 1296.6 818.692 1296.13 818.692 1295.61V1291.85C818.692 1291.33 818.345 1291.12 817.911 1291.36Z" fill="#4FA847"/>
<path fill-rule="evenodd" clip-rule="evenodd" d="M423.611 1193.37C419.095 1179.31 411.851 1166.86 401.642 1156.15C399.061 1153.44 396.193 1150.96 394.392 1147.59C393.255 1145.46 392.171 1143.29 391.062 1141.15L390.358 1139.37L390.162 1140.07C390.07 1143.58 388.086 1145.95 385.617 1148.17C382.835 1150.66 380.247 1153.37 377.576 1155.99L369.362 1166.79L362.721 1179.01L358.279 1191L358.146 1191.18C355.702 1199.21 354.497 1207.47 353.905 1215.8C353.681 1218.94 353.938 1222.11 354.113 1225.26C354.365 1229.77 355.147 1234.19 356.319 1238.55C360.581 1254.38 369.23 1267.51 381.057 1278.66C383.253 1280.73 385.627 1282.62 387.918 1284.59L388.933 1288.07L389.876 1293.48L390.327 1299.12C390.322 1300.26 390.275 1301.41 390.343 1302.55C390.362 1302.85 390.743 1303.12 390.958 1303.4L392.873 1304.07L394.866 1304.85L394.524 1299.83L394.509 1294.89L395.197 1287.37L395.697 1285.73L397.128 1283.2C398.893 1281.78 400.785 1280.49 402.393 1278.91C405.302 1276.05 408.205 1273.16 410.808 1270.03C414.195 1265.97 417.088 1261.52 419.426 1256.78C420.986 1253.6 422.456 1250.36 423.672 1247.04C424.744 1244.11 425.408 1241.03 426.253 1238.02L426.475 1237.37C428.218 1229.24 428.511 1221.02 427.871 1212.76C427.356 1206.1 425.79 1199.67 423.611 1193.37V1193.37ZM389.097 1280.56C389.365 1279.23 389.696 1277.9 389.937 1276.55C389.696 1277.9 389.366 1279.23 389.097 1280.56ZM395.024 1281.49L393.903 1279.03L395.024 1281.49L396.67 1282.89L395.024 1281.49ZM464.666 1312.58C463.233 1309.83 461.131 1307.75 458.353 1306.38C456.025 1305.23 453.522 1304.73 450.949 1304.66C449.02 1304.6 447.084 1304.7 445.152 1304.73C443.437 1304.75 441.72 1304.78 440.005 1304.76C437.988 1304.74 435.971 1304.68 433.954 1304.62C433.619 1304.61 433.381 1304.68 433.225 1305.02C432.981 1305.55 432.691 1306.06 432.391 1306.64L432.727 1306.75C433.728 1306.92 434.734 1307.07 435.73 1307.27C437.01 1307.53 437.585 1308.26 437.644 1309.34C437.731 1310.88 437.766 1312.42 437.76 1313.96C437.734 1320.05 437.691 1326.15 437.646 1332.24C437.643 1332.64 437.636 1333.06 437.526 1333.44C437.4 1333.88 437.263 1334.44 436.937 1334.66C436.35 1335.04 435.691 1335.29 435.003 1335.4C434.03 1335.56 433.867 1335.6 433.563 1336.56L433.431 1337.03C433.286 1337.56 433.364 1337.66 433.908 1337.66C437.034 1337.7 440.157 1337.77 443.281 1337.76C446.131 1337.75 448.98 1337.92 451.819 1337.38C454.502 1336.88 457.007 1335.99 459.293 1334.5C462.259 1332.55 464.392 1329.95 465.517 1326.56C466.426 1323.83 466.629 1321.03 466.32 1318.17C466.128 1316.22 465.566 1314.32 464.666 1312.58V1312.58ZM459.19 1329.33C457.518 1332.45 455.024 1334.52 451.46 1335.07C449.228 1335.41 446.993 1335.31 444.864 1334.47C443.517 1333.94 443.016 1332.77 442.974 1331.4C442.936 1330.05 442.917 1328.7 442.917 1327.35C442.91 1322.61 442.91 1317.87 442.917 1313.13C442.92 1311.63 442.946 1310.14 442.971 1308.64C442.988 1307.59 443.208 1307.24 444.233 1307.15C448.736 1306.78 453.032 1307.26 456.599 1310.43C458.805 1312.39 460.061 1314.89 460.583 1317.76C460.8 1318.96 460.866 1320.18 461.001 1321.4C460.892 1324.17 460.517 1326.86 459.19 1329.33ZM496.981 1324.2C496.093 1322.04 494.41 1320.68 492.296 1319.82C491.575 1319.52 490.831 1319.27 490.052 1318.99L490.324 1318.81C491.165 1318.27 492.102 1317.84 492.827 1317.17C494.589 1315.56 495.321 1313.53 494.978 1311.12C494.651 1308.82 493.507 1307.14 491.462 1306.04C489.606 1305.06 487.605 1304.7 485.534 1304.7C481.951 1304.7 478.366 1304.75 474.782 1304.76C473.548 1304.76 472.313 1304.67 471.078 1304.65C470.838 1304.65 470.483 1304.71 470.381 1304.87C470.098 1305.3 469.911 1305.8 469.709 1306.29C469.593 1306.57 469.708 1306.72 470.029 1306.76C470.891 1306.88 471.751 1307.03 472.614 1307.16C473.808 1307.34 474.385 1307.96 474.458 1309.16L474.474 1309.87C474.475 1313.61 474.488 1317.35 474.472 1321.08C474.45 1324.82 474.414 1328.55 474.366 1332.28C474.361 1332.75 474.297 1333.22 474.229 1333.69C474.127 1334.39 473.751 1334.88 473.029 1335.03L470.988 1335.43C470.747 1335.48 470.398 1335.48 470.299 1335.62C469.924 1336.18 469.623 1336.8 469.664 1337.54L469.874 1337.59L476.73 1337.76L478.106 1337.76C480.478 1337.73 482.854 1337.78 485.223 1337.65C487.789 1337.53 490.198 1336.76 492.425 1335.45C494.795 1334.06 496.62 1332.22 497.269 1329.45C497.685 1327.68 497.687 1325.91 496.981 1324.2V1324.2ZM479.562 1308.28C479.573 1307.52 479.904 1307.2 480.65 1307.18C482.487 1307.13 484.311 1307.14 486.084 1307.77C488.376 1308.59 489.787 1310.57 489.761 1312.98C489.748 1313.91 489.762 1314.83 489.421 1315.72C488.746 1317.48 487.452 1318.4 485.617 1318.58C484.66 1318.68 483.694 1318.69 482.84 1318.74L479.993 1318.61C479.614 1318.6 479.45 1318.43 479.451 1318.04L479.562 1308.28V1308.28ZM491.367 1331.68C490.449 1333.68 488.777 1334.72 486.684 1335.09C485.015 1335.37 483.305 1335.3 481.668 1334.87C480.443 1334.55 479.944 1333.57 479.699 1332.48C479.535 1331.75 479.562 1330.88 479.549 1330.12C479.526 1328.95 479.543 1326.52 479.543 1326.52H479.519C479.519 1324.78 479.524 1323.28 479.514 1321.62C479.512 1321.26 479.573 1321.08 480.012 1321.09C481.569 1321.14 483.132 1321.17 484.689 1321.23C486.082 1321.28 487.386 1321.69 488.612 1322.35C490.479 1323.36 491.602 1324.9 491.911 1327.02C492.147 1328.62 492.046 1330.2 491.367 1331.68V1331.68ZM320.38 1333.55L320.413 1324.12C320.418 1322.7 320.238 1321.31 319.773 1319.96C318.491 1316.26 314.956 1314.57 311.276 1315.9C309.602 1316.5 308.102 1317.42 306.67 1318.46C305.835 1319.07 305.835 1319.07 305.232 1318.2C303.523 1315.76 301.083 1314.92 298.242 1315.82C296.405 1316.4 294.799 1317.4 293.278 1318.56C293.136 1318.67 292.85 1318.79 292.765 1318.72C292.623 1318.62 292.524 1318.37 292.527 1318.18L292.631 1316.5C292.64 1316.15 292.572 1315.8 292.538 1315.43C291.851 1315.66 291.303 1315.9 290.729 1316.04C288.955 1316.47 287.168 1316.87 285.384 1317.28C284.952 1317.38 284.496 1317.51 284.454 1318.01C284.411 1318.49 284.881 1318.57 285.245 1318.72C286.011 1319.03 286.773 1319.36 287.531 1319.69C288.167 1319.97 288.405 1320.48 288.401 1321.16C288.389 1324.08 288.408 1327 288.391 1329.93C288.384 1331.11 288.328 1332.3 288.275 1333.49C288.226 1334.54 287.867 1334.98 286.847 1335.25C286.306 1335.39 285.756 1335.48 285.212 1335.61C285.092 1335.64 284.887 1335.72 284.886 1335.78C284.863 1336.29 284.835 1336.82 284.922 1337.32C284.94 1337.41 285.484 1337.41 285.786 1337.44L285.989 1337.43C288.091 1337.4 290.193 1337.37 292.297 1337.35C293.412 1337.33 294.525 1337.34 295.736 1337.34L295.866 1335.66C295.172 1335.53 294.553 1335.44 293.943 1335.31C292.99 1335.1 292.585 1334.59 292.56 1333.63L292.543 1332.26C292.533 1328.69 292.519 1325.12 292.519 1321.56C292.519 1321.04 292.734 1320.63 293.19 1320.32C294.156 1319.66 295.176 1319.14 296.305 1318.85C298.684 1318.25 300.748 1319.09 301.664 1321.12C301.954 1321.75 302.181 1322.46 302.245 1323.15C302.582 1326.73 302.436 1330.31 302.233 1333.89C302.19 1334.66 301.827 1335.05 301.066 1335.24L299.276 1335.61C299.132 1335.65 298.922 1335.55 298.912 1335.67C298.872 1336.17 298.894 1336.93 298.894 1336.93H299.321L304.77 1337.1C306.264 1337.1 307.759 1337.28 309.25 1337.32C309.517 1337.32 309.755 1337.36 309.771 1337.06C309.788 1336.58 309.781 1336.1 309.751 1335.62L309.467 1335.57L307.932 1335.22C306.897 1334.98 306.539 1334.58 306.536 1333.54C306.524 1330.95 306.559 1328.37 306.536 1325.79C306.523 1324.32 306.468 1322.84 306.371 1321.37C306.345 1320.98 306.406 1320.72 306.718 1320.5C307.623 1319.84 308.641 1319.35 309.722 1319.05C313.078 1318.17 315.825 1320.01 315.999 1323.47C316.169 1326.8 316.098 1330.15 316.072 1333.5C316.063 1334.66 315.678 1335.01 314.531 1335.32L314.136 1335.43C312.962 1335.71 312.972 1335.71 313.042 1336.95C313.064 1337.35 313.172 1337.45 313.588 1337.44C315.98 1337.38 318.371 1337.37 320.763 1337.35C321.741 1337.34 322.719 1337.35 323.784 1337.35L324.001 1335.72C323.066 1335.48 322.204 1335.29 321.372 1335.02C320.636 1334.77 320.376 1334.33 320.38 1333.55V1333.55ZM402.743 1319.26C403.729 1318.34 403.736 1317.13 403.46 1315.79C402.679 1316.61 401.805 1316.99 400.808 1317.06C399.471 1317.15 398.158 1317.04 396.912 1316.5C393.544 1315.06 390.228 1315.16 386.922 1316.75C384.142 1318.08 382.432 1320.16 382.26 1323.3C382.151 1325.32 382.529 1327.23 383.875 1328.83C384.682 1329.8 385.717 1330.42 386.884 1330.85C387.387 1331.03 387.425 1331.27 387.004 1331.59C386.693 1331.83 386.37 1332.05 386.038 1332.25C385.333 1332.7 384.625 1333.13 383.912 1333.56C383.494 1333.81 383.351 1334.14 383.488 1334.63C383.889 1336.08 384.921 1336.92 386.211 1337.54L386.681 1337.86L386.27 1338.27C385.006 1339.3 383.691 1340.27 382.481 1341.35C381.464 1342.27 381.137 1343.49 381.444 1344.84C382.063 1347.54 383.851 1349.21 386.388 1349.98C390.823 1351.32 394.987 1350.55 398.784 1347.92C401.035 1346.36 402.65 1344.33 403.141 1341.54C403.69 1338.4 401.947 1335.68 398.827 1335.12C396.763 1334.74 394.651 1334.64 392.563 1334.4C391.588 1334.29 390.599 1334.22 389.651 1334C388.844 1333.81 388.444 1333.15 388.518 1332.51C388.593 1331.87 389.264 1331.29 390.032 1331.23C391.579 1331.1 393.095 1330.86 394.521 1330.21C398.298 1328.48 400.052 1325.46 399.613 1321.38C399.556 1320.84 399.431 1320.29 399.318 1319.66C400.527 1319.86 401.764 1320.17 402.743 1319.26V1319.26ZM391.281 1338.36C392.818 1338.41 394.566 1338.5 396.255 1339C397.742 1339.43 398.964 1340.19 399.325 1341.85C399.76 1343.86 398.796 1345.85 396.855 1346.92C395.038 1347.92 393.064 1348.01 391.062 1347.8C389.349 1347.62 387.807 1347.03 386.572 1345.77C384.945 1344.1 384.937 1341.79 386.565 1340.13C388.02 1338.65 388.799 1338.34 391.281 1338.36V1338.36ZM395.126 1326.29C394.231 1329.15 391.626 1329.55 389.585 1328.63C387.845 1327.85 387.087 1326.32 386.69 1324.57C386.536 1323.9 386.499 1323.2 386.409 1322.51C386.446 1321.52 386.609 1320.58 387.034 1319.69C388.336 1316.95 391.536 1317.12 393.307 1318.35C394.066 1318.88 394.595 1319.61 394.927 1320.46C395.664 1322.32 395.735 1324.38 395.126 1326.29V1326.29ZM378.875 1335.42C378.255 1335.32 377.643 1335.18 377.042 1335.01C375.987 1334.68 375.859 1334.49 375.847 1333.37C375.816 1330.26 375.795 1327.16 375.76 1324.05C375.743 1322.65 375.576 1321.27 375.148 1319.94C374.02 1316.42 370.567 1314.53 367.112 1315.56C365.198 1316.14 363.554 1317.22 362.022 1318.48L361.464 1318.91L361.465 1318.33C361.502 1317.67 361.573 1317.01 361.568 1316.35C361.564 1316 361.432 1315.66 361.368 1315.35C360.062 1315.75 358.892 1316.14 357.697 1316.44C356.498 1316.75 355.275 1316.95 354.063 1317.2C353.461 1317.32 353.019 1317.68 353.029 1318.1C353.045 1318.68 353.529 1318.79 353.952 1318.97C354.719 1319.28 355.483 1319.6 356.241 1319.94C356.783 1320.18 357.003 1320.63 356.998 1321.21C356.959 1325.25 356.935 1329.29 356.876 1333.33C356.859 1334.6 356.536 1334.94 355.281 1335.22L354.733 1335.33C353.57 1335.53 353.538 1335.58 353.617 1336.8L353.624 1337.01C353.61 1337.48 353.817 1337.63 354.302 1337.63C357.39 1337.59 360.478 1337.57 363.566 1337.58C364.889 1337.59 365.031 1337.49 365.003 1336.13L364.941 1335.54C364.185 1335.41 363.462 1335.32 362.754 1335.17C362.013 1335 361.748 1334.7 361.679 1333.95C361.615 1333.26 361.594 1332.56 361.587 1331.86C361.552 1328.69 361.524 1325.51 361.509 1322.34C361.505 1321.54 361.653 1320.8 362.388 1320.28C363.47 1319.51 364.746 1319.05 366.074 1318.96C368.828 1318.77 370.921 1320.4 371.07 1323.15C371.254 1326.54 371.199 1329.94 371.242 1333.33C371.245 1333.58 371.2 1333.84 371.166 1334.09C371.1 1334.59 370.857 1334.96 370.354 1335.09C369.863 1335.22 369.365 1335.33 368.864 1335.41C368.117 1335.52 368.101 1335.51 368.044 1336.27L368.063 1336.77C368.151 1337.65 368.153 1337.63 369.041 1337.62C372.028 1337.59 375.013 1337.58 377.997 1337.58C379.246 1337.58 379.335 1337.53 379.345 1336.24L379.342 1335.93C379.361 1335.6 379.213 1335.47 378.875 1335.42V1335.42ZM420.59 1315.78C417.46 1315.01 414.49 1315.58 411.67 1317.04C408.93 1318.46 407.098 1320.65 406.401 1323.67C405.697 1326.73 406.034 1329.71 407.385 1332.55C408.264 1334.4 409.617 1335.82 411.459 1336.75C415.77 1338.92 421.045 1337.93 424.427 1335.03C427.096 1332.74 428.076 1329.69 428.135 1325.91C428.098 1325.53 428.062 1324.81 427.961 1324.08C427.394 1319.97 424.548 1316.75 420.59 1315.78V1315.78ZM422.961 1331.66C422.13 1334.93 419.302 1336.38 416.11 1335.26C414.482 1334.68 413.264 1333.59 412.446 1332.11C410.562 1328.71 410.2 1325.1 411.271 1321.39C411.986 1318.92 414.019 1317.57 416.436 1317.74C418.597 1317.89 420.259 1318.93 421.478 1320.68C422.763 1322.54 423.259 1324.65 423.391 1326.87C423.414 1327.22 423.395 1327.58 423.395 1327.94L423.547 1327.95C423.357 1329.19 423.266 1330.45 422.961 1331.66V1331.66ZM341.855 1315.72C338.561 1314.97 335.476 1315.72 332.617 1317.39C330.146 1318.84 328.549 1321 327.936 1323.82C327.362 1326.46 327.596 1329.05 328.531 1331.58C329.1 1333.12 329.962 1334.47 331.227 1335.53C333.889 1337.75 337 1338.31 340.311 1337.69C343.114 1337.17 345.577 1335.92 347.367 1333.59C349.042 1331.42 349.68 1328.91 349.746 1326.2C349.647 1325.34 349.623 1324.47 349.441 1323.63C348.536 1319.45 346.09 1316.69 341.855 1315.72V1315.72ZM344.541 1331.65C343.738 1334.9 340.864 1336.39 337.696 1335.27C335.661 1334.54 334.336 1333.05 333.499 1331.14C332.156 1328.07 331.882 1324.88 332.751 1321.65C333.417 1319.17 335.424 1317.35 338.495 1317.78C340.381 1318.05 341.851 1319.01 342.947 1320.55C344.429 1322.61 344.916 1324.98 344.984 1327.46V1327.97L345.108 1327.99C344.926 1329.21 344.836 1330.45 344.541 1331.65V1331.65Z" fill="#67A65D"/>
</svg>
